<svg width="295" height="47" viewBox="0 0 295 47" fill="none" xmlns="http://www.w3.org/2000/svg">
<rect x="18" width="251" height="47" fill="#56685D"/>
<path d="M61.5404 39.25C58.7604 39.25 56.0604 38.76 53.4404 37.78C50.8404 36.82 48.2604 35.61 45.7004 34.15C44.6204 33.53 43.5404 32.88 42.4604 32.2C41.4004 31.52 40.3404 30.83 39.2804 30.13C38.2404 31.13 37.1604 31.94 36.0404 32.56C34.9404 33.18 33.8004 33.49 32.6204 33.49C31.8404 33.49 30.9604 33.31 29.9804 32.95C29.0204 32.61 28.2104 32.13 27.5504 31.51C27.0104 30.99 26.5204 30.41 26.0804 29.77C25.6604 29.11 25.3104 28.46 25.0304 27.82C24.7704 27.18 24.5904 26.63 24.4904 26.17C24.3704 25.53 24.3104 24.97 24.3104 24.49C24.3104 23.51 24.5204 22.82 24.9404 22.42C25.3804 22 25.9404 21.79 26.6204 21.79C27.2004 21.79 27.8304 21.92 28.5104 22.18C29.1904 22.42 29.8604 22.74 30.5204 23.14C31.9204 23.98 33.3004 24.86 34.6604 25.78C36.0204 26.7 37.3704 27.61 38.7104 28.51C39.2104 27.97 39.7004 27.39 40.1804 26.77C40.6604 26.15 41.1404 25.53 41.6204 24.91C40.4804 24.79 39.4504 24.45 38.5304 23.89C37.6104 23.31 36.8704 22.54 36.3104 21.58C35.7704 20.6 35.5004 19.48 35.5004 18.22C35.5004 17.44 35.6604 16.68 35.9804 15.94C36.3204 15.18 36.7804 14.5 37.3604 13.9C37.9404 13.28 38.5904 12.79 39.3104 12.43C40.0504 12.07 40.8204 11.89 41.6204 11.89C42.3004 11.89 43.0004 12.06 43.7204 12.4C44.0004 12.54 44.1404 12.7 44.1404 12.88C44.1404 13.08 44.0104 13.18 43.7504 13.18C43.6504 13.18 43.5704 13.16 43.5104 13.12C43.1304 12.9 42.7304 12.79 42.3104 12.79C41.6304 12.79 40.9204 12.99 40.1804 13.39C39.4404 13.77 38.7804 14.31 38.2004 15.01C37.6404 15.71 37.2704 16.54 37.0904 17.5C37.0504 17.72 37.0204 17.94 37.0004 18.16C36.9804 18.38 36.9704 18.6 36.9704 18.82C36.9704 20.36 37.4404 21.62 38.3804 22.6C39.3404 23.58 40.6004 24.08 42.1604 24.1C42.7404 23.32 43.2304 22.59 43.6304 21.91C44.4504 20.63 45.2204 19.32 45.9404 17.98C46.6604 16.62 47.4104 15.39 48.1904 14.29C48.9704 13.19 49.8304 12.28 50.7704 11.56C51.7304 10.84 52.8404 10.48 54.1004 10.48C54.6804 10.48 55.1004 10.68 55.3604 11.08C55.6204 11.48 55.7504 11.89 55.7504 12.31C55.7504 13.25 55.5204 14.26 55.0604 15.34C54.6204 16.4 54.0004 17.46 53.2004 18.52C52.4004 19.56 51.4804 20.53 50.4404 21.43C49.4204 22.31 48.3204 23.06 47.1404 23.68C45.9604 24.28 44.7704 24.67 43.5704 24.85C43.0104 25.65 42.4304 26.44 41.8304 27.22C41.2504 27.98 40.6404 28.7 40.0004 29.38C40.8804 29.98 41.7604 30.56 42.6404 31.12C43.5204 31.7 44.4104 32.25 45.3104 32.77C47.7904 34.23 50.3304 35.43 52.9304 36.37C55.5504 37.33 58.3304 37.81 61.2704 37.81C61.8704 37.81 62.5304 37.74 63.2504 37.6C63.9704 37.46 64.6604 37.23 65.3204 36.91C66.0004 36.59 66.5504 36.16 66.9704 35.62C67.4104 35.1 67.6304 34.44 67.6304 33.64C67.6304 33.12 67.5504 32.64 67.3904 32.2C67.2504 31.76 67.0604 31.35 66.8204 30.97C66.7604 30.85 66.7304 30.76 66.7304 30.7C66.7304 30.6 66.7804 30.53 66.8804 30.49C66.9004 30.49 66.9104 30.49 66.9104 30.49C66.9304 30.47 66.9504 30.46 66.9704 30.46C67.0504 30.46 67.1204 30.49 67.1804 30.55C67.2604 30.59 67.3304 30.63 67.3904 30.67C67.8504 31.03 68.1504 31.5 68.2904 32.08C68.4504 32.68 68.5304 33.19 68.5304 33.61C68.5304 35.45 67.9204 36.85 66.7004 37.81C65.5004 38.77 63.7804 39.25 61.5404 39.25ZM44.2604 23.8C45.3804 23.48 46.4504 22.96 47.4704 22.24C48.5104 21.52 49.4604 20.69 50.3204 19.75C51.2004 18.81 51.9604 17.86 52.6004 16.9C53.2404 15.94 53.7104 15.07 54.0104 14.29C54.0704 14.13 54.1404 13.87 54.2204 13.51C54.3204 13.15 54.3704 12.8 54.3704 12.46C54.3704 12.14 54.3104 11.88 54.1904 11.68C54.0904 11.48 53.9104 11.38 53.6504 11.38C53.0904 11.34 52.5704 11.52 52.0904 11.92C51.6304 12.3 51.2004 12.75 50.8004 13.27C50.3004 13.89 49.8104 14.57 49.3304 15.31C48.8704 16.03 48.4104 16.77 47.9504 17.53L44.2604 23.8ZM29.4704 31.75C29.9304 31.97 30.3804 32.13 30.8204 32.23C31.2604 32.33 31.6904 32.38 32.1104 32.38C33.1904 32.38 34.2104 32.09 35.1704 31.51C36.1504 30.93 37.0904 30.18 37.9904 29.26C36.7104 28.42 35.4204 27.59 34.1204 26.77C32.8404 25.93 31.5404 25.11 30.2204 24.31C29.7004 23.99 29.2104 23.77 28.7504 23.65C28.2904 23.51 27.8704 23.44 27.4904 23.44C26.8704 23.44 26.3904 23.61 26.0504 23.95C25.7304 24.29 25.6104 24.73 25.6904 25.27C25.8504 26.23 26.1204 27.22 26.5004 28.24C26.9004 29.24 27.4804 30.12 28.2404 30.88C28.4004 31.04 28.5804 31.19 28.7804 31.33C28.9804 31.49 29.2104 31.63 29.4704 31.75ZM51.4576 19.39V19.33C51.4576 19.27 51.4776 19.2 51.5176 19.12C51.5576 19.02 51.6376 18.92 51.7576 18.82C51.8776 18.72 52.0776 18.51 52.3576 18.19C52.6576 17.87 52.8776 17.58 53.0176 17.32C52.9976 17.28 52.9776 17.24 52.9576 17.2C52.9576 17.16 52.9476 17.12 52.9276 17.08C52.8476 16.98 52.7976 16.87 52.7776 16.75C52.7576 16.69 52.7476 16.6 52.7476 16.48C52.7476 16.3 52.8176 16.08 52.9576 15.82C53.2376 15.38 53.5976 15.16 54.0376 15.16C54.3976 15.16 54.5776 15.36 54.5776 15.76C54.5776 16.08 54.4476 16.47 54.1876 16.93C53.9276 17.41 53.5876 17.88 53.1676 18.34C52.7476 18.8 52.3476 19.15 51.9676 19.39C51.8676 19.47 51.7676 19.51 51.6676 19.51C51.5676 19.51 51.4976 19.47 51.4576 19.39ZM53.6842 19.39V19.33C53.6842 19.27 53.7042 19.2 53.7442 19.12C53.7842 19.02 53.8642 18.92 53.9842 18.82C54.1042 18.72 54.3042 18.51 54.5842 18.19C54.8842 17.87 55.1042 17.58 55.2442 17.32C55.2242 17.28 55.2042 17.24 55.1842 17.2C55.1842 17.16 55.1742 17.12 55.1542 17.08C55.0742 16.98 55.0242 16.87 55.0042 16.75C54.9842 16.69 54.9742 16.6 54.9742 16.48C54.9742 16.3 55.0442 16.08 55.1842 15.82C55.4642 15.38 55.8242 15.16 56.2642 15.16C56.6242 15.16 56.8042 15.36 56.8042 15.76C56.8042 16.08 56.6742 16.47 56.4142 16.93C56.1542 17.41 55.8142 17.88 55.3942 18.34C54.9742 18.8 54.5742 19.15 54.1942 19.39C54.0942 19.47 53.9942 19.51 53.8942 19.51C53.7942 19.51 53.7242 19.47 53.6842 19.39ZM65.1807 31.33C64.5807 31.33 64.0307 31.18 63.5307 30.88C63.0507 30.56 62.8107 29.99 62.8107 29.17C62.8107 28.87 62.8507 28.56 62.9307 28.24C63.0107 27.9 63.1007 27.57 63.2007 27.25C62.8607 27.59 62.4407 27.99 61.9407 28.45C61.4407 28.89 60.8907 29.32 60.2907 29.74C59.7107 30.16 59.1207 30.51 58.5207 30.79C57.9407 31.05 57.3907 31.18 56.8707 31.18C56.2307 31.18 55.7107 30.95 55.3107 30.49C55.0307 30.19 54.8907 29.8 54.8907 29.32C54.8907 28.74 55.0907 28.1 55.4907 27.4C55.9107 26.68 56.4707 25.97 57.1707 25.27C57.8907 24.57 58.7007 23.93 59.6007 23.35C60.5207 22.77 61.4707 22.31 62.4507 21.97C63.5107 21.59 64.4507 21.4 65.2707 21.4C66.7107 21.4 67.4307 22.02 67.4307 23.26C67.4307 23.34 67.4207 23.44 67.4007 23.56C67.4007 23.66 67.3907 23.77 67.3707 23.89C67.2707 24.29 67.1207 24.56 66.9207 24.7C66.9007 24.72 66.8507 24.75 66.7707 24.79C66.6907 24.81 66.6207 24.78 66.5607 24.7C66.5007 24.6 66.4907 24.46 66.5307 24.28C66.5907 24.06 66.6207 23.87 66.6207 23.71C66.6207 23.15 66.3107 22.87 65.6907 22.87C65.3507 22.87 64.9207 22.94 64.4007 23.08C63.8807 23.22 63.3207 23.41 62.7207 23.65C62.1407 23.87 61.5807 24.11 61.0407 24.37C60.5207 24.63 60.0807 24.89 59.7207 25.15C58.8007 25.81 57.9907 26.54 57.2907 27.34C56.6107 28.12 56.2207 28.8 56.1207 29.38C56.1007 29.44 56.0907 29.5 56.0907 29.56C56.0907 29.62 56.0907 29.67 56.0907 29.71C56.0907 30.01 56.1507 30.21 56.2707 30.31C56.4107 30.41 56.5707 30.46 56.7507 30.46C57.0907 30.46 57.4807 30.36 57.9207 30.16C58.3607 29.94 58.7707 29.7 59.1507 29.44C59.5507 29.18 59.8307 28.98 59.9907 28.84C60.6107 28.3 61.3107 27.72 62.0907 27.1C62.8907 26.46 63.6007 25.87 64.2207 25.33C64.3407 25.27 64.4907 25.24 64.6707 25.24C64.9907 25.24 65.2407 25.31 65.4207 25.45C65.5007 25.51 65.5407 25.63 65.5407 25.81C65.5407 26.05 65.4507 26.35 65.2707 26.71C64.9507 27.39 64.6807 28 64.4607 28.54C64.2407 29.06 64.1307 29.49 64.1307 29.83C64.1307 30.33 64.4107 30.58 64.9707 30.58C65.4107 30.58 66.1207 30.41 67.1007 30.07C68.1207 29.69 69.1507 29.16 70.1907 28.48C71.2507 27.8 72.2007 27.11 73.0407 26.41C73.1407 26.31 73.2407 26.23 73.3407 26.17C73.4407 26.11 73.5307 26.04 73.6107 25.96C73.7107 25.9 73.8007 25.83 73.8807 25.75C73.9807 25.67 74.0907 25.59 74.2107 25.51C74.3307 25.47 74.4107 25.45 74.4507 25.45C74.5907 25.45 74.6607 25.52 74.6607 25.66C74.6607 25.78 74.6107 25.89 74.5107 25.99C74.3907 26.15 74.1007 26.44 73.6407 26.86C73.1807 27.28 72.6107 27.75 71.9307 28.27C71.2707 28.79 70.5407 29.29 69.7407 29.77C68.9607 30.25 68.1707 30.63 67.3707 30.91C67.0707 31.01 66.7207 31.1 66.3207 31.18C65.9407 31.28 65.5607 31.33 65.1807 31.33ZM76.48 36.25C75.56 36.25 74.89 36.02 74.47 35.56C74.05 35.1 73.84 34.51 73.84 33.79C73.84 33.01 74.03 32.13 74.41 31.15C74.81 30.17 75.33 29.18 75.97 28.18C76.63 27.16 77.34 26.22 78.1 25.36C78 25.38 77.9 25.39 77.8 25.39C77.7 25.39 77.6 25.39 77.5 25.39C76.82 25.39 76.25 25.23 75.79 24.91C75.59 25.21 75.31 25.54 74.95 25.9C74.59 26.26 74.24 26.58 73.9 26.86C73.06 27.56 72.17 28.23 71.23 28.87C70.29 29.51 69.36 30.04 68.44 30.46C67.52 30.88 66.66 31.12 65.86 31.18C65.8 31.18 65.72 31.17 65.62 31.15C65.5 31.13 65.41 31.09 65.35 31.03C65.27 30.97 65.25 30.91 65.29 30.85C65.33 30.77 65.37 30.72 65.41 30.7C65.47 30.66 65.54 30.63 65.62 30.61C65.7 30.57 65.81 30.54 65.95 30.52C66.63 30.38 67.38 30.1 68.2 29.68C69.02 29.24 69.87 28.72 70.75 28.12C71.65 27.5 72.51 26.85 73.33 26.17C73.67 25.91 74.02 25.62 74.38 25.3C74.74 24.96 75.06 24.65 75.34 24.37C75.14 24.05 75.04 23.71 75.04 23.35C75.04 22.87 75.17 22.39 75.43 21.91C75.69 21.43 76.02 20.99 76.42 20.59C76.82 20.17 77.25 19.84 77.71 19.6C78.17 19.34 78.6 19.21 79 19.21C79.22 19.21 79.37 19.26 79.45 19.36C79.55 19.46 79.6 19.57 79.6 19.69C79.6 19.95 79.51 20.15 79.33 20.29C79.19 20.41 78.96 20.63 78.64 20.95C78.34 21.27 78.01 21.63 77.65 22.03C77.29 22.41 76.96 22.79 76.66 23.17C76.38 23.53 76.19 23.83 76.09 24.07C76.15 24.17 76.24 24.26 76.36 24.34C76.5 24.42 76.73 24.46 77.05 24.46C77.53 24.46 78 24.36 78.46 24.16C78.92 23.96 79.35 23.72 79.75 23.44C79.87 23.38 80 23.35 80.14 23.35C80.36 23.35 80.57 23.4 80.77 23.5C80.99 23.58 81.14 23.67 81.22 23.77C81.24 23.79 81.25 23.83 81.25 23.89C81.25 24.09 81.14 24.33 80.92 24.61C80.8 24.75 80.66 24.9 80.5 25.06C80.36 25.22 80.22 25.38 80.08 25.54C79.52 26.16 78.94 26.86 78.34 27.64C77.76 28.4 77.23 29.18 76.75 29.98C76.27 30.76 75.88 31.5 75.58 32.2C75.28 32.92 75.13 33.54 75.13 34.06C75.13 34.44 75.23 34.74 75.43 34.96C75.65 35.2 76.02 35.32 76.54 35.32C76.64 35.32 76.75 35.31 76.87 35.29C77.01 35.29 77.15 35.28 77.29 35.26C77.79 35.18 78.36 35 79 34.72C79.64 34.44 80.28 34.11 80.92 33.73C81.56 33.37 82.11 33.04 82.57 32.74C82.61 32.7 82.68 32.68 82.78 32.68C82.92 32.68 83 32.74 83.02 32.86V32.92C83.02 33.02 82.96 33.13 82.84 33.25C82.8 33.29 82.73 33.35 82.63 33.43C82.53 33.53 82.4 33.65 82.24 33.79C81.6 34.35 80.89 34.84 80.11 35.26C79.33 35.7 78.51 35.99 77.65 36.13C77.45 36.15 77.25 36.17 77.05 36.19C76.85 36.23 76.66 36.25 76.48 36.25ZM85.3105 31.69C84.6305 31.69 84.0105 31.55 83.4505 31.27C82.9105 31.01 82.6405 30.48 82.6405 29.68C82.6405 29.14 82.8405 28.53 83.2405 27.85C83.6605 27.15 84.2005 26.41 84.8605 25.63C85.5405 24.85 86.2705 24.07 87.0505 23.29C87.8505 22.51 88.6305 21.78 89.3905 21.1C89.1905 21.06 89.0005 21.02 88.8205 20.98C88.6605 20.94 88.5005 20.9 88.3405 20.86C87.4405 20.64 86.3605 20.38 85.1005 20.08C83.8605 19.76 82.5305 19.46 81.1105 19.18C79.7105 18.88 78.2605 18.63 76.7605 18.43C75.2605 18.21 73.8005 18.1 72.3805 18.1C70.5205 18.1 68.8305 18.34 67.3105 18.82C65.7905 19.3 64.6305 20.15 63.8305 21.37C63.7705 21.45 63.7105 21.52 63.6505 21.58C63.5905 21.64 63.5305 21.68 63.4705 21.7C63.4505 21.7 63.4405 21.71 63.4405 21.73C63.4205 21.73 63.4005 21.73 63.3805 21.73C63.2605 21.73 63.1805 21.66 63.1405 21.52C63.1205 21.48 63.1105 21.42 63.1105 21.34C63.1105 21.08 63.1805 20.87 63.3205 20.71C63.9605 19.77 64.7705 19.03 65.7505 18.49C66.7105 17.95 67.7905 17.57 68.9905 17.35C70.1705 17.11 71.4005 16.99 72.6805 16.99C73.9805 16.99 75.2905 17.08 76.6105 17.26C77.9305 17.42 79.2005 17.63 80.4205 17.89C81.6405 18.13 82.7605 18.39 83.7805 18.67C84.8205 18.93 85.6905 19.16 86.3905 19.36C86.8705 19.48 87.4505 19.62 88.1305 19.78C88.8105 19.94 89.5505 20.09 90.3505 20.23L92.1205 18.7C92.0405 18.48 92.1205 18.21 92.3605 17.89C92.6205 17.57 92.9805 17.31 93.4405 17.11C93.4805 17.09 93.5705 17.08 93.7105 17.08C93.9105 17.08 94.1405 17.11 94.4005 17.17C94.6605 17.23 94.8905 17.32 95.0905 17.44C95.2905 17.56 95.3905 17.71 95.3905 17.89C95.3905 17.97 95.3205 18.08 95.1805 18.22C95.0405 18.36 94.8805 18.49 94.7005 18.61C94.5405 18.73 94.4305 18.81 94.3705 18.85C94.1505 18.97 93.8405 19.18 93.4405 19.48C93.0605 19.76 92.6105 20.1 92.0905 20.5C93.5305 20.72 94.9005 20.83 96.2005 20.83C97.2005 20.83 98.0905 20.75 98.8705 20.59C99.6505 20.41 100.271 20.11 100.731 19.69C101.191 19.27 101.421 18.71 101.421 18.01C101.421 17.93 101.421 17.86 101.421 17.8C101.421 17.72 101.411 17.64 101.391 17.56V17.53C101.391 17.33 101.501 17.23 101.721 17.23C101.881 17.23 101.991 17.32 102.051 17.5C102.071 17.62 102.081 17.74 102.081 17.86C102.101 17.98 102.111 18.1 102.111 18.22C102.111 19.18 101.831 19.94 101.271 20.5C100.711 21.04 99.9805 21.43 99.0805 21.67C98.1805 21.89 97.2105 22 96.1705 22C95.3105 22 94.4305 21.94 93.5305 21.82C92.6505 21.7 91.8005 21.57 90.9805 21.43C90.1805 22.09 89.3705 22.81 88.5505 23.59C87.7305 24.37 86.9705 25.14 86.2705 25.9C85.5705 26.66 85.0005 27.36 84.5605 28C84.1405 28.64 83.9305 29.16 83.9305 29.56C83.9305 30.34 84.5605 30.73 85.8205 30.73C86.7605 30.73 87.8605 30.5 89.1205 30.04C89.2405 30 89.3605 29.96 89.4805 29.92C89.6205 29.86 89.7605 29.8 89.9005 29.74C90.8205 29.34 91.7305 28.84 92.6305 28.24C93.5305 27.62 94.3505 27 95.0905 26.38C95.1905 26.28 95.2905 26.2 95.3905 26.14C95.4905 26.06 95.5805 25.99 95.6605 25.93C95.7605 25.85 95.8505 25.78 95.9305 25.72C96.0305 25.64 96.1405 25.55 96.2605 25.45C96.3805 25.41 96.4605 25.39 96.5005 25.39C96.6405 25.39 96.7105 25.46 96.7105 25.6C96.7105 25.74 96.6605 25.86 96.5605 25.96C96.4405 26.12 96.1505 26.42 95.6905 26.86C95.2305 27.28 94.6605 27.75 93.9805 28.27C93.3005 28.79 92.5605 29.29 91.7605 29.77C90.9805 30.25 90.1905 30.63 89.3905 30.91C88.9905 31.05 88.4005 31.21 87.6205 31.39C86.8405 31.59 86.0705 31.69 85.3105 31.69ZM114.159 35.26C113.219 35.26 112.549 34.91 112.149 34.21C111.769 33.51 111.579 32.67 111.579 31.69C111.579 30.99 111.659 30.26 111.819 29.5C111.979 28.72 112.189 27.96 112.449 27.22C112.109 27.58 111.689 27.99 111.189 28.45C110.689 28.89 110.139 29.33 109.539 29.77C108.959 30.19 108.369 30.54 107.769 30.82C107.189 31.1 106.639 31.24 106.119 31.24C105.499 31.24 104.979 31.01 104.559 30.55C104.279 30.25 104.139 29.86 104.139 29.38C104.139 28.8 104.339 28.16 104.739 27.46C105.139 26.76 105.659 26.07 106.299 25.39C106.939 24.71 107.629 24.11 108.369 23.59C109.109 23.07 109.819 22.7 110.499 22.48C111.199 22.24 111.779 22.12 112.239 22.12C112.759 22.12 113.159 22.22 113.439 22.42C113.739 22.6 113.969 22.82 114.129 23.08C114.289 23.34 114.409 23.58 114.489 23.8C114.869 23.26 115.259 22.69 115.659 22.09C116.059 21.49 116.479 20.89 116.919 20.29C117.559 19.37 118.239 18.48 118.959 17.62C119.679 16.76 120.409 15.99 121.149 15.31C121.489 15.01 121.809 14.86 122.109 14.86C122.269 14.86 122.419 14.91 122.559 15.01C122.859 15.23 123.129 15.49 123.369 15.79C123.609 16.07 123.729 16.34 123.729 16.6C123.729 16.68 123.699 16.77 123.639 16.87C123.519 17.05 123.409 17.14 123.309 17.14C123.229 17.12 123.169 17.09 123.129 17.05C123.109 17.01 123.089 16.96 123.069 16.9C123.049 16.82 123.029 16.75 123.009 16.69C122.989 16.53 122.899 16.45 122.739 16.45C122.559 16.45 122.349 16.54 122.109 16.72C121.869 16.88 121.709 16.99 121.629 17.05C121.209 17.39 120.719 17.87 120.159 18.49C119.599 19.11 119.039 19.78 118.479 20.5C117.919 21.22 117.419 21.9 116.979 22.54C115.919 24.06 115.079 25.47 114.459 26.77C113.839 28.07 113.389 29.46 113.109 30.94C113.069 31.2 113.029 31.45 112.989 31.69C112.969 31.93 112.959 32.16 112.959 32.38C112.959 33 113.069 33.49 113.289 33.85C113.509 34.21 113.849 34.39 114.309 34.39C114.569 34.39 114.849 34.35 115.149 34.27C115.489 34.15 115.859 33.94 116.259 33.64C116.659 33.36 117.049 33.05 117.429 32.71C117.829 32.37 118.159 32.05 118.419 31.75C118.479 31.69 118.549 31.66 118.629 31.66C118.729 31.66 118.789 31.7 118.809 31.78C118.869 31.92 118.869 32.04 118.809 32.14C118.789 32.18 118.749 32.24 118.689 32.32C118.629 32.42 118.559 32.52 118.479 32.62C118.139 33.14 117.729 33.61 117.249 34.03C116.769 34.45 116.229 34.77 115.629 34.99C115.089 35.17 114.599 35.26 114.159 35.26ZM105.549 29.56C105.549 29.88 105.609 30.1 105.729 30.22C105.869 30.32 106.039 30.37 106.239 30.37C106.559 30.37 106.919 30.28 107.319 30.1C107.719 29.9 108.099 29.68 108.459 29.44C108.819 29.18 109.079 28.98 109.239 28.84C109.859 28.32 110.559 27.74 111.339 27.1C112.139 26.46 112.849 25.86 113.469 25.3C113.569 25.14 113.679 24.98 113.799 24.82C113.919 24.66 114.039 24.49 114.159 24.31C114.139 24.31 114.119 24.32 114.099 24.34C114.079 24.34 114.059 24.34 114.039 24.34C113.839 24.34 113.739 24.24 113.739 24.04C113.739 24.02 113.689 23.92 113.589 23.74C113.509 23.56 113.219 23.47 112.719 23.47C112.259 23.47 111.719 23.6 111.099 23.86C110.499 24.12 109.889 24.47 109.269 24.91C108.649 25.33 108.069 25.8 107.529 26.32C106.989 26.84 106.539 27.36 106.179 27.88C105.839 28.38 105.639 28.83 105.579 29.23C105.559 29.29 105.549 29.35 105.549 29.41C105.549 29.47 105.549 29.52 105.549 29.56ZM122.893 31.39C122.433 31.39 121.993 31.34 121.573 31.24C121.153 31.14 120.773 30.99 120.433 30.79C119.553 30.23 119.113 29.49 119.113 28.57C119.113 27.85 119.353 27.12 119.833 26.38C120.333 25.62 120.973 24.9 121.753 24.22C122.533 23.54 123.353 22.98 124.213 22.54C124.733 22.26 125.253 22.06 125.773 21.94C126.293 21.82 126.753 21.76 127.153 21.76C127.853 21.76 128.313 21.9 128.533 22.18C128.773 22.44 128.893 22.75 128.893 23.11C128.893 23.49 128.773 23.86 128.533 24.22C128.293 24.56 127.953 24.9 127.513 25.24C126.753 25.86 125.713 26.41 124.393 26.89C123.093 27.37 121.753 27.71 120.373 27.91C120.173 28.31 120.073 28.68 120.073 29.02C120.113 29.58 120.403 29.98 120.943 30.22C121.503 30.44 122.123 30.55 122.803 30.55C123.043 30.55 123.273 30.54 123.493 30.52C123.713 30.5 123.923 30.47 124.123 30.43C125.123 30.23 126.143 29.87 127.183 29.35C128.243 28.83 129.263 28.23 130.243 27.55C131.223 26.87 132.103 26.19 132.883 25.51C133.003 25.47 133.083 25.45 133.123 25.45C133.263 25.45 133.333 25.52 133.333 25.66C133.333 25.76 133.293 25.86 133.213 25.96C133.073 26.2 132.783 26.51 132.343 26.89C131.923 27.27 131.443 27.66 130.903 28.06C130.363 28.44 129.833 28.81 129.313 29.17C128.813 29.51 128.393 29.77 128.053 29.95C127.333 30.35 126.513 30.69 125.593 30.97C124.673 31.25 123.773 31.39 122.893 31.39ZM120.883 27.07C121.523 26.91 122.263 26.71 123.103 26.47C123.943 26.21 124.743 25.91 125.503 25.57C126.263 25.21 126.833 24.82 127.213 24.4C127.373 24.24 127.483 24.08 127.543 23.92C127.603 23.74 127.633 23.59 127.633 23.47C127.633 23.37 127.593 23.28 127.513 23.2C127.453 23.12 127.253 23.08 126.913 23.08C126.433 23.08 125.813 23.28 125.053 23.68C124.293 24.06 123.533 24.56 122.773 25.18C122.033 25.78 121.403 26.41 120.883 27.07ZM141.326 31.9C140.466 31.9 139.716 31.67 139.076 31.21C138.456 30.77 138.146 29.95 138.146 28.75C138.146 27.63 138.476 26.46 139.136 25.24C139.816 24.02 140.746 22.82 141.926 21.64C143.126 20.44 144.516 19.31 146.096 18.25C147.696 17.19 149.426 16.25 151.286 15.43C153.146 14.61 155.076 13.97 157.076 13.51C159.076 13.03 161.066 12.79 163.046 12.79C164.866 12.79 166.306 13.05 167.366 13.57C168.446 14.09 168.986 14.86 168.986 15.88C168.986 16.28 168.916 16.66 168.776 17.02C168.636 17.4 168.416 17.82 168.116 18.28C167.836 18.74 167.516 19.21 167.156 19.69C166.796 20.17 166.406 20.66 165.986 21.16C165.566 21.66 165.146 22.15 164.726 22.63C164.546 22.85 164.276 23.19 163.916 23.65C163.576 24.09 163.196 24.59 162.776 25.15C162.376 25.71 161.996 26.29 161.636 26.89C161.276 27.47 160.976 28.02 160.736 28.54C160.496 29.04 160.376 29.46 160.376 29.8C160.376 30.18 160.586 30.37 161.006 30.37C161.586 30.37 162.316 30.12 163.196 29.62C164.096 29.1 165.046 28.42 166.046 27.58C167.066 26.74 168.066 25.83 169.046 24.85C170.026 23.85 170.906 22.87 171.686 21.91C172.486 20.95 173.096 20.1 173.516 19.36C173.616 19.18 173.716 19.01 173.816 18.85C173.916 18.67 174.006 18.51 174.086 18.37C174.166 18.21 174.246 18.07 174.326 17.95C174.406 17.81 174.486 17.69 174.566 17.59C174.726 17.37 174.906 17.2 175.106 17.08C175.326 16.94 175.576 16.87 175.856 16.87C176.016 16.87 176.226 16.93 176.486 17.05C176.766 17.15 177.006 17.28 177.206 17.44C177.406 17.6 177.476 17.75 177.416 17.89C177.336 18.07 177.176 18.32 176.936 18.64C176.716 18.94 176.486 19.23 176.246 19.51C176.026 19.77 175.846 19.94 175.706 20.02C175.326 20.54 174.936 21.25 174.536 22.15C174.136 23.03 173.766 23.95 173.426 24.91C173.326 25.19 173.196 25.6 173.036 26.14C172.876 26.68 172.726 27.25 172.586 27.85C172.466 28.45 172.406 29 172.406 29.5C172.406 30.38 172.666 30.82 173.186 30.82C173.366 30.82 173.586 30.77 173.846 30.67C174.126 30.57 174.456 30.39 174.836 30.13C175.396 29.75 176.136 29.13 177.056 28.27C177.976 27.39 178.946 26.44 179.966 25.42C181.506 23.88 183.086 22.22 184.706 20.44C186.326 18.66 187.956 17.01 189.596 15.49C190.996 14.19 192.416 13.05 193.856 12.07C195.316 11.07 196.876 10.37 198.536 9.97C199.116 9.83 199.756 9.76 200.456 9.76C200.636 9.76 200.816 9.77 200.996 9.79C201.176 9.79 201.356 9.81 201.536 9.85C202.296 10.01 202.866 10.36 203.246 10.9C203.626 11.44 203.816 12.07 203.816 12.79C203.816 13.75 203.486 14.78 202.826 15.88C202.186 16.98 201.226 17.96 199.946 18.82C199.866 18.88 199.756 18.93 199.616 18.97C199.456 18.97 199.376 18.88 199.376 18.7C199.416 18.5 199.616 18.28 199.976 18.04C200.516 17.68 200.996 17.22 201.416 16.66C201.856 16.1 202.196 15.51 202.436 14.89C202.696 14.27 202.826 13.7 202.826 13.18C202.826 12.78 202.726 12.43 202.526 12.13C202.346 11.81 202.056 11.58 201.656 11.44C201.436 11.4 201.216 11.37 200.996 11.35C200.776 11.33 200.556 11.32 200.336 11.32C200.096 11.32 199.856 11.34 199.616 11.38C199.396 11.42 199.146 11.47 198.866 11.53C197.526 11.85 196.146 12.41 194.726 13.21C193.306 14.01 191.926 14.96 190.586 16.06C189.666 16.8 188.776 17.6 187.916 18.46C187.056 19.32 186.216 20.19 185.396 21.07C184.596 21.93 183.806 22.8 183.026 23.68C182.246 24.56 181.486 25.41 180.746 26.23C179.826 27.25 178.896 28.2 177.956 29.08C177.036 29.96 176.136 30.68 175.256 31.24C174.936 31.42 174.606 31.56 174.266 31.66C173.926 31.78 173.586 31.84 173.246 31.84C172.586 31.84 172.016 31.61 171.536 31.15C171.076 30.71 170.846 30 170.846 29.02C170.846 28.54 170.906 27.94 171.026 27.22C171.166 26.48 171.346 25.71 171.566 24.91C171.786 24.09 172.026 23.33 172.286 22.63C171.766 23.23 171.136 23.92 170.396 24.7C169.676 25.46 168.896 26.23 168.056 27.01C167.216 27.79 166.346 28.51 165.446 29.17C164.566 29.83 163.686 30.36 162.806 30.76C161.926 31.16 161.096 31.36 160.316 31.36C159.716 31.36 159.276 31.24 158.996 31C158.716 30.76 158.576 30.44 158.576 30.04C158.576 29.46 158.786 28.78 159.206 28C159.646 27.22 160.146 26.44 160.706 25.66C161.286 24.88 161.856 24.14 162.416 23.44C162.996 22.74 163.436 22.2 163.736 21.82C164.556 20.76 165.276 19.69 165.896 18.61C166.536 17.53 166.856 16.58 166.856 15.76C166.856 15.12 166.576 14.59 166.016 14.17C165.456 13.75 164.446 13.54 162.986 13.54C161.126 13.54 159.266 13.77 157.406 14.23C155.546 14.69 153.746 15.32 152.006 16.12C150.286 16.9 148.686 17.8 147.206 18.82C145.746 19.84 144.456 20.93 143.336 22.09C142.236 23.23 141.376 24.38 140.756 25.54C140.136 26.7 139.826 27.81 139.826 28.87C139.826 29.79 139.986 30.4 140.306 30.7C140.646 30.98 141.046 31.12 141.506 31.12C141.806 31.12 142.106 31.09 142.406 31.03C142.726 30.97 143.036 30.9 143.336 30.82C143.396 30.8 143.476 30.79 143.576 30.79C143.756 30.79 143.886 30.83 143.966 30.91C144.046 30.97 144.086 31.03 144.086 31.09C144.086 31.17 144.056 31.24 143.996 31.3C143.936 31.36 143.866 31.41 143.786 31.45C143.406 31.59 142.996 31.7 142.556 31.78C142.136 31.86 141.726 31.9 141.326 31.9ZM190.416 36.25C189.496 36.25 188.826 36.02 188.406 35.56C187.986 35.1 187.776 34.51 187.776 33.79C187.776 33.01 187.966 32.13 188.346 31.15C188.746 30.17 189.266 29.18 189.906 28.18C190.566 27.16 191.276 26.22 192.036 25.36C191.936 25.38 191.836 25.39 191.736 25.39C191.636 25.39 191.536 25.39 191.436 25.39C190.756 25.39 190.186 25.23 189.726 24.91C189.526 25.21 189.246 25.54 188.886 25.9C188.526 26.26 188.176 26.58 187.836 26.86C186.996 27.56 186.106 28.23 185.166 28.87C184.226 29.51 183.296 30.04 182.376 30.46C181.456 30.88 180.596 31.12 179.796 31.18C179.736 31.18 179.656 31.17 179.556 31.15C179.436 31.13 179.346 31.09 179.286 31.03C179.206 30.97 179.186 30.91 179.226 30.85C179.266 30.77 179.306 30.72 179.346 30.7C179.406 30.66 179.476 30.63 179.556 30.61C179.636 30.57 179.746 30.54 179.886 30.52C180.566 30.38 181.316 30.1 182.136 29.68C182.956 29.24 183.806 28.72 184.686 28.12C185.586 27.5 186.446 26.85 187.266 26.17C187.606 25.91 187.956 25.62 188.316 25.3C188.676 24.96 188.996 24.65 189.276 24.37C189.076 24.05 188.976 23.71 188.976 23.35C188.976 22.87 189.106 22.39 189.366 21.91C189.626 21.43 189.956 20.99 190.356 20.59C190.756 20.17 191.186 19.84 191.646 19.6C192.106 19.34 192.536 19.21 192.936 19.21C193.156 19.21 193.306 19.26 193.386 19.36C193.486 19.46 193.536 19.57 193.536 19.69C193.536 19.95 193.446 20.15 193.266 20.29C193.126 20.41 192.896 20.63 192.576 20.95C192.276 21.27 191.946 21.63 191.586 22.03C191.226 22.41 190.896 22.79 190.596 23.17C190.316 23.53 190.126 23.83 190.026 24.07C190.086 24.17 190.176 24.26 190.296 24.34C190.436 24.42 190.666 24.46 190.986 24.46C191.466 24.46 191.936 24.36 192.396 24.16C192.856 23.96 193.286 23.72 193.686 23.44C193.806 23.38 193.936 23.35 194.076 23.35C194.296 23.35 194.506 23.4 194.706 23.5C194.926 23.58 195.076 23.67 195.156 23.77C195.176 23.79 195.186 23.83 195.186 23.89C195.186 24.09 195.076 24.33 194.856 24.61C194.736 24.75 194.596 24.9 194.436 25.06C194.296 25.22 194.156 25.38 194.016 25.54C193.456 26.16 192.876 26.86 192.276 27.64C191.696 28.4 191.166 29.18 190.686 29.98C190.206 30.76 189.816 31.5 189.516 32.2C189.216 32.92 189.066 33.54 189.066 34.06C189.066 34.44 189.166 34.74 189.366 34.96C189.586 35.2 189.956 35.32 190.476 35.32C190.576 35.32 190.686 35.31 190.806 35.29C190.946 35.29 191.086 35.28 191.226 35.26C191.726 35.18 192.296 35 192.936 34.72C193.576 34.44 194.216 34.11 194.856 33.73C195.496 33.37 196.046 33.04 196.506 32.74C196.546 32.7 196.616 32.68 196.716 32.68C196.856 32.68 196.936 32.74 196.956 32.86V32.92C196.956 33.02 196.896 33.13 196.776 33.25C196.736 33.29 196.666 33.35 196.566 33.43C196.466 33.53 196.336 33.65 196.176 33.79C195.536 34.35 194.826 34.84 194.046 35.26C193.266 35.7 192.446 35.99 191.586 36.13C191.386 36.15 191.186 36.17 190.986 36.19C190.786 36.23 190.596 36.25 190.416 36.25ZM203.746 21.1C203.506 21.1 203.336 21.04 203.236 20.92C203.136 20.78 203.086 20.61 203.086 20.41C203.086 20.19 203.126 20 203.206 19.84C203.286 19.68 203.496 19.54 203.836 19.42C204.196 19.3 204.576 19.21 204.976 19.15C205.396 19.09 205.716 19.06 205.936 19.06C206.176 19.06 206.296 19.11 206.296 19.21C206.296 19.29 206.246 19.36 206.146 19.42C206.106 19.44 206.046 19.47 205.966 19.51C205.906 19.55 205.826 19.59 205.726 19.63C205.586 19.69 205.426 19.77 205.246 19.87C205.086 19.95 204.986 20.05 204.946 20.17C204.826 20.43 204.656 20.65 204.436 20.83C204.216 21.01 203.986 21.1 203.746 21.1ZM198.766 31.24C198.206 31.24 197.696 31.13 197.236 30.91C196.796 30.69 196.576 30.27 196.576 29.65C196.576 29.05 196.716 28.47 196.996 27.91C197.276 27.35 197.626 26.82 198.046 26.32C198.486 25.82 198.906 25.38 199.306 25C199.646 24.7 199.916 24.46 200.116 24.28C200.096 24.26 200.086 24.22 200.086 24.16C200.086 24 200.156 23.84 200.296 23.68C200.516 23.36 200.876 23.09 201.376 22.87C201.496 22.83 201.616 22.81 201.736 22.81C201.996 22.81 202.256 22.87 202.516 22.99C202.776 23.09 202.906 23.26 202.906 23.5C202.906 23.64 202.856 23.77 202.756 23.89C202.656 24.01 202.566 24.1 202.486 24.16C202.326 24.28 202.076 24.49 201.736 24.79C201.416 25.07 201.066 25.4 200.686 25.78C200.306 26.14 199.936 26.5 199.576 26.86C199.236 27.2 198.976 27.49 198.796 27.73C198.096 28.63 197.746 29.31 197.746 29.77C197.746 29.97 197.826 30.14 197.986 30.28C198.166 30.4 198.476 30.46 198.916 30.46C199.616 30.46 200.306 30.35 200.986 30.13C201.686 29.89 202.326 29.62 202.906 29.32C203.386 29.08 203.836 28.81 204.256 28.51C204.696 28.21 205.126 27.9 205.546 27.58C205.966 27.24 206.386 26.89 206.806 26.53C207.246 26.17 207.686 25.81 208.126 25.45C208.186 25.43 208.256 25.42 208.336 25.42C208.496 25.42 208.576 25.49 208.576 25.63C208.576 25.75 208.526 25.86 208.426 25.96C208.306 26.12 208.056 26.38 207.676 26.74C207.296 27.1 206.826 27.51 206.266 27.97C205.726 28.43 205.116 28.88 204.436 29.32C203.756 29.76 203.056 30.14 202.336 30.46C201.956 30.62 201.426 30.79 200.746 30.97C200.066 31.15 199.406 31.24 198.766 31.24ZM200.162 43.72C199.642 43.72 199.112 43.65 198.572 43.51C198.012 43.39 197.552 43.16 197.192 42.82C196.812 42.5 196.622 42.05 196.622 41.47C196.622 40.75 196.912 39.98 197.492 39.16C198.072 38.34 198.942 37.58 200.102 36.88C201.222 36.2 202.332 35.61 203.432 35.11C204.532 34.63 205.632 34.2 206.732 33.82C207.812 33.44 208.902 33.08 210.002 32.74C211.102 32.42 212.322 32.04 213.662 31.6C214.022 30.88 214.302 30.14 214.502 29.38C214.722 28.62 214.832 27.96 214.832 27.4C214.832 27.04 214.782 26.74 214.682 26.5C214.622 26.54 214.582 26.58 214.562 26.62C214.542 26.66 214.512 26.7 214.472 26.74C214.332 26.88 214.162 27.06 213.962 27.28C213.762 27.48 213.542 27.7 213.302 27.94C212.902 28.34 212.392 28.81 211.772 29.35C211.172 29.89 210.542 30.36 209.882 30.76C209.242 31.14 208.622 31.33 208.022 31.33C207.742 31.33 207.472 31.26 207.212 31.12C206.952 31 206.722 30.8 206.522 30.52C206.282 30.18 206.162 29.8 206.162 29.38C206.162 28.78 206.342 28.14 206.702 27.46C207.082 26.78 207.562 26.12 208.142 25.48C208.722 24.82 209.332 24.25 209.972 23.77C210.632 23.29 211.242 22.95 211.802 22.75C212.002 22.69 212.202 22.64 212.402 22.6C212.622 22.56 212.862 22.54 213.122 22.54C213.682 22.54 214.232 22.67 214.772 22.93C215.332 23.17 215.652 23.62 215.732 24.28V24.37C215.732 24.67 215.642 24.87 215.462 24.97C215.422 25.01 215.362 25.03 215.282 25.03C215.082 25.03 214.982 24.9 214.982 24.64C214.982 24.5 214.922 24.29 214.802 24.01C214.682 23.73 214.392 23.59 213.932 23.59C213.332 23.59 212.662 23.8 211.922 24.22C211.202 24.64 210.502 25.17 209.822 25.81C209.142 26.43 208.562 27.08 208.082 27.76C207.622 28.44 207.352 29.04 207.272 29.56C207.252 29.64 207.242 29.71 207.242 29.77C207.242 29.83 207.242 29.88 207.242 29.92C207.242 30.22 207.292 30.42 207.392 30.52C207.512 30.6 207.632 30.64 207.752 30.64C208.052 30.64 208.402 30.52 208.802 30.28C209.222 30.04 209.612 29.78 209.972 29.5C210.352 29.2 210.632 28.98 210.812 28.84C211.332 28.4 211.862 27.94 212.402 27.46C212.962 26.98 213.522 26.5 214.082 26.02C214.062 25.98 214.052 25.92 214.052 25.84C214.052 25.74 214.072 25.65 214.112 25.57C214.212 25.41 214.352 25.28 214.532 25.18C214.712 25.08 214.962 25.03 215.282 25.03C215.722 25.03 216.042 25.2 216.242 25.54C216.442 25.88 216.542 26.33 216.542 26.89C216.542 27.39 216.462 27.99 216.302 28.69C216.142 29.37 215.892 30.12 215.552 30.94C217.452 30.24 219.142 29.49 220.622 28.69C222.102 27.89 223.272 27.09 224.132 26.29C224.252 26.17 224.432 26 224.672 25.78C224.932 25.56 225.192 25.35 225.452 25.15C225.592 25.05 225.712 24.96 225.812 24.88C225.932 24.78 226.032 24.7 226.112 24.64C226.232 24.56 226.312 24.52 226.352 24.52C226.532 24.44 226.622 24.49 226.622 24.67C226.622 24.79 226.542 24.98 226.382 25.24C226.222 25.48 225.902 25.84 225.422 26.32C224.042 27.68 222.452 28.87 220.652 29.89C218.872 30.91 216.982 31.65 214.982 32.11C214.262 33.57 213.362 34.99 212.282 36.37C211.202 37.75 209.992 38.99 208.652 40.09C207.332 41.19 205.942 42.06 204.482 42.7C203.042 43.36 201.602 43.7 200.162 43.72ZM199.772 43.03C201.092 43.03 202.392 42.72 203.672 42.1C204.972 41.5 206.202 40.69 207.362 39.67C208.522 38.65 209.582 37.53 210.542 36.31C211.522 35.11 212.352 33.91 213.032 32.71C210.512 33.45 208.302 34.18 206.402 34.9C204.502 35.64 202.722 36.56 201.062 37.66C199.842 38.46 198.972 39.2 198.452 39.88C197.932 40.56 197.672 41.14 197.672 41.62C197.672 42 197.852 42.33 198.212 42.61C198.572 42.89 199.092 43.03 199.772 43.03ZM234.403 31.51C233.543 31.51 232.853 31.31 232.333 30.91C231.813 30.49 231.443 29.95 231.223 29.29C231.003 28.63 230.893 27.92 230.893 27.16C230.893 26.76 230.923 26.36 230.983 25.96C231.043 25.54 231.113 25.13 231.193 24.73C230.753 25.23 230.253 25.77 229.693 26.35C229.153 26.93 228.593 27.49 228.013 28.03C227.453 28.57 226.933 29.05 226.453 29.47C225.973 29.89 225.573 30.2 225.253 30.4C225.313 30.52 225.343 30.63 225.343 30.73C225.343 30.91 225.283 31.05 225.163 31.15C225.043 31.25 224.903 31.3 224.743 31.3C224.563 31.3 224.373 31.24 224.173 31.12C223.993 31.02 223.843 30.84 223.723 30.58C223.643 30.42 223.603 30.2 223.603 29.92C223.603 29.52 223.693 29.06 223.873 28.54C224.073 28.02 224.313 27.48 224.593 26.92C224.973 26.2 225.393 25.46 225.853 24.7C226.333 23.92 226.793 23.19 227.233 22.51C227.133 22.41 227.063 22.32 227.023 22.24C226.983 22.14 226.963 22.06 226.963 22C226.963 21.94 226.983 21.87 227.023 21.79C227.063 21.69 227.123 21.64 227.203 21.64C227.283 21.64 227.363 21.68 227.443 21.76C227.463 21.82 227.513 21.89 227.593 21.97C227.793 21.65 228.183 21.04 228.763 20.14C229.363 19.22 230.103 18.14 230.983 16.9C231.863 15.66 232.833 14.39 233.893 13.09C234.733 12.05 235.623 11.05 236.563 10.09C237.503 9.11 238.463 8.24 239.443 7.48C240.423 6.7 241.403 6.08 242.383 5.62C243.363 5.16 244.313 4.93 245.233 4.93C246.253 4.93 247.013 5.2 247.513 5.74C248.013 6.26 248.263 6.94 248.263 7.78C248.263 8.94 248.013 10.06 247.513 11.14C247.013 12.2 246.343 13.22 245.503 14.2C244.683 15.16 243.763 16.07 242.743 16.93C241.723 17.77 240.693 18.55 239.653 19.27C238.673 19.95 237.613 20.54 236.473 21.04C235.353 21.54 234.263 21.96 233.203 22.3C233.283 22.38 233.353 22.47 233.413 22.57C233.493 22.67 233.573 22.78 233.653 22.9C233.693 22.98 233.713 23.07 233.713 23.17C233.713 23.51 233.653 23.76 233.533 23.92C232.693 25.22 232.273 26.51 232.273 27.79C232.273 28.59 232.473 29.26 232.873 29.8C233.273 30.34 233.883 30.61 234.703 30.61C235.543 30.61 236.643 30.27 238.003 29.59C238.863 29.15 239.733 28.64 240.613 28.06C241.513 27.48 242.323 26.9 243.043 26.32C243.143 26.22 243.243 26.14 243.343 26.08C243.463 26.02 243.563 25.95 243.643 25.87L244.243 25.39C244.303 25.37 244.373 25.36 244.453 25.36C244.613 25.36 244.693 25.43 244.693 25.57C244.693 25.69 244.643 25.8 244.543 25.9C244.423 26.06 244.153 26.33 243.733 26.71C243.313 27.07 242.793 27.49 242.173 27.97C241.573 28.45 240.913 28.92 240.193 29.38C239.493 29.84 238.793 30.24 238.093 30.58C237.693 30.78 237.143 30.98 236.443 31.18C235.763 31.4 235.083 31.51 234.403 31.51ZM228.763 22.27C229.243 22.23 229.893 22.11 230.713 21.91C231.533 21.69 232.433 21.4 233.413 21.04C234.393 20.68 235.383 20.26 236.383 19.78C237.383 19.3 238.303 18.77 239.143 18.19C239.703 17.79 240.333 17.3 241.033 16.72C241.753 16.14 242.473 15.49 243.193 14.77C243.913 14.05 244.573 13.3 245.173 12.52C245.793 11.72 246.283 10.91 246.643 10.09C247.023 9.27 247.213 8.46 247.213 7.66C247.213 7.1 247.063 6.69 246.763 6.43C246.463 6.17 245.953 6.04 245.233 6.04C244.613 6.04 243.873 6.28 243.013 6.76C242.153 7.24 241.263 7.86 240.343 8.62C239.423 9.36 238.543 10.15 237.703 10.99C236.883 11.81 236.193 12.56 235.633 13.24C234.773 14.3 233.893 15.4 232.993 16.54C232.093 17.66 231.263 18.73 230.503 19.75C229.763 20.75 229.183 21.59 228.763 22.27ZM225.073 29.47C225.313 29.31 225.653 29.03 226.093 28.63C226.533 28.23 227.023 27.77 227.563 27.25C228.103 26.73 228.643 26.2 229.183 25.66C229.743 25.1 230.243 24.58 230.683 24.1C231.143 23.6 231.503 23.2 231.763 22.9L231.853 22.69C230.813 22.93 229.903 23.05 229.123 23.05C228.983 23.05 228.843 23.05 228.703 23.05C228.563 23.03 228.443 23.01 228.343 22.99C227.843 23.75 227.343 24.56 226.843 25.42C226.343 26.26 225.923 27.04 225.583 27.76C225.243 28.48 225.073 29.05 225.073 29.47ZM244.1 31.69C243.42 31.69 242.8 31.55 242.24 31.27C241.7 31.01 241.43 30.48 241.43 29.68C241.43 29.14 241.63 28.53 242.03 27.85C242.45 27.15 242.99 26.41 243.65 25.63C244.33 24.85 245.06 24.07 245.84 23.29C246.64 22.51 247.42 21.78 248.18 21.1C247.98 21.06 247.79 21.02 247.61 20.98C247.45 20.94 247.29 20.9 247.13 20.86C246.23 20.64 245.15 20.38 243.89 20.08C242.65 19.76 241.32 19.46 239.9 19.18C238.5 18.88 237.05 18.63 235.55 18.43C234.05 18.21 232.59 18.1 231.17 18.1C229.31 18.1 227.62 18.34 226.1 18.82C224.58 19.3 223.42 20.15 222.62 21.37C222.56 21.45 222.5 21.52 222.44 21.58C222.38 21.64 222.32 21.68 222.26 21.7C222.24 21.7 222.23 21.71 222.23 21.73C222.21 21.73 222.19 21.73 222.17 21.73C222.05 21.73 221.97 21.66 221.93 21.52C221.91 21.48 221.9 21.42 221.9 21.34C221.9 21.08 221.97 20.87 222.11 20.71C222.75 19.77 223.56 19.03 224.54 18.49C225.5 17.95 226.58 17.57 227.78 17.35C228.96 17.11 230.19 16.99 231.47 16.99C232.77 16.99 234.08 17.08 235.4 17.26C236.72 17.42 237.99 17.63 239.21 17.89C240.43 18.13 241.55 18.39 242.57 18.67C243.61 18.93 244.48 19.16 245.18 19.36C245.66 19.48 246.24 19.62 246.92 19.78C247.6 19.94 248.34 20.09 249.14 20.23L250.91 18.7C250.83 18.48 250.91 18.21 251.15 17.89C251.41 17.57 251.77 17.31 252.23 17.11C252.27 17.09 252.36 17.08 252.5 17.08C252.7 17.08 252.93 17.11 253.19 17.17C253.45 17.23 253.68 17.32 253.88 17.44C254.08 17.56 254.18 17.71 254.18 17.89C254.18 17.97 254.11 18.08 253.97 18.22C253.83 18.36 253.67 18.49 253.49 18.61C253.33 18.73 253.22 18.81 253.16 18.85C252.94 18.97 252.63 19.18 252.23 19.48C251.85 19.76 251.4 20.1 250.88 20.5C252.32 20.72 253.69 20.83 254.99 20.83C255.99 20.83 256.88 20.75 257.66 20.59C258.44 20.41 259.06 20.11 259.52 19.69C259.98 19.27 260.21 18.71 260.21 18.01C260.21 17.93 260.21 17.86 260.21 17.8C260.21 17.72 260.2 17.64 260.18 17.56V17.53C260.18 17.33 260.29 17.23 260.51 17.23C260.67 17.23 260.78 17.32 260.84 17.5C260.86 17.62 260.87 17.74 260.87 17.86C260.89 17.98 260.9 18.1 260.9 18.22C260.9 19.18 260.62 19.94 260.06 20.5C259.5 21.04 258.77 21.43 257.87 21.67C256.97 21.89 256 22 254.96 22C254.1 22 253.22 21.94 252.32 21.82C251.44 21.7 250.59 21.57 249.77 21.43C248.97 22.09 248.16 22.81 247.34 23.59C246.52 24.37 245.76 25.14 245.06 25.9C244.36 26.66 243.79 27.36 243.35 28C242.93 28.64 242.72 29.16 242.72 29.56C242.72 30.34 243.35 30.73 244.61 30.73C245.55 30.73 246.65 30.5 247.91 30.04C248.03 30 248.15 29.96 248.27 29.92C248.41 29.86 248.55 29.8 248.69 29.74C249.61 29.34 250.52 28.84 251.42 28.24C252.32 27.62 253.14 27 253.88 26.38C253.98 26.28 254.08 26.2 254.18 26.14C254.28 26.06 254.37 25.99 254.45 25.93C254.55 25.85 254.64 25.78 254.72 25.72C254.82 25.64 254.93 25.55 255.05 25.45C255.17 25.41 255.25 25.39 255.29 25.39C255.43 25.39 255.5 25.46 255.5 25.6C255.5 25.74 255.45 25.86 255.35 25.96C255.23 26.12 254.94 26.42 254.48 26.86C254.02 27.28 253.45 27.75 252.77 28.27C252.09 28.79 251.35 29.29 250.55 29.77C249.77 30.25 248.98 30.63 248.18 30.91C247.78 31.05 247.19 31.21 246.41 31.39C245.63 31.59 244.86 31.69 244.1 31.69Z" fill="#FBEFEF"/>
</svg>
