<svg width="30" height="30" viewBox="0 0 30 30" fill="none" xmlns="http://www.w3.org/2000/svg">
<path d="M15 26.1244L21.1871 19.9371C24.6043 16.5201 24.6043 10.9799 21.1871 7.56281C17.7701 4.14573 12.2299 4.14573 8.81281 7.56281C5.39573 10.9799 5.39573 16.5201 8.81281 19.9371L15 26.1244ZM15 29.6599L7.04505 21.705C2.65165 17.3115 2.65165 10.1885 7.04505 5.79505C11.4385 1.40165 18.5615 1.40165 22.955 5.79505C27.3484 10.1885 27.3484 17.3115 22.955 21.705L15 29.6599ZM15 16.25C16.3808 16.25 17.5 15.1308 17.5 13.75C17.5 12.3693 16.3808 11.25 15 11.25C13.6193 11.25 12.5 12.3693 12.5 13.75C12.5 15.1308 13.6193 16.25 15 16.25ZM15 18.75C12.2386 18.75 10 16.5114 10 13.75C10 10.9886 12.2386 8.75 15 8.75C17.7614 8.75 20 10.9886 20 13.75C20 16.5114 17.7614 18.75 15 18.75Z" fill="black"/>
</svg>
