<svg width="30" height="30" viewBox="0 0 30 30" fill="none" xmlns="http://www.w3.org/2000/svg">
<path d="M24.5086 8.74353C24.4134 8.37119 24.144 8.09026 23.8355 8.0036C23.2874 7.85078 20.6263 7.5 15.0013 7.5C9.37623 7.5 6.71565 7.85091 6.16532 8.00404C5.8597 8.08904 5.59038 8.36991 5.49388 8.74353C5.35788 9.27404 5.00123 11.4949 5.00123 15C5.00123 18.505 5.35788 20.726 5.49425 21.258C5.58908 21.6289 5.85845 21.9097 6.16564 21.996C6.71565 22.1491 9.37623 22.5 15.0013 22.5C20.6263 22.5 23.2874 22.1493 23.8371 21.996C24.1428 21.911 24.4121 21.6301 24.5086 21.2565C24.6446 20.726 25.0013 18.5 25.0013 15C25.0013 11.5 24.6446 9.27404 24.5086 8.74353ZM26.9303 8.12273C27.5013 10.35 27.5013 15 27.5013 15C27.5013 15 27.5013 19.65 26.9303 21.8773C26.6121 23.1091 25.6838 24.0772 24.507 24.4045C22.3714 25 15.0013 25 15.0013 25C15.0013 25 7.63547 25 5.49547 24.4045C4.31433 24.0728 3.38599 23.1045 3.07218 21.8773C2.50123 19.65 2.50123 15 2.50123 15C2.50123 15 2.50123 10.35 3.07218 8.12273C3.39034 6.89091 4.31869 5.92272 5.49547 5.59545C7.63547 5 15.0013 5 15.0013 5C15.0013 5 22.3714 5 24.507 5.59545C25.6881 5.92727 26.6165 6.89545 26.9303 8.12273ZM12.5013 19.375V10.625L20.0013 15L12.5013 19.375Z" fill="#FBEFEF"/>
</svg>
